<?xml version="1.0" standalone="no"?>
<!DOCTYPE svg PUBLIC "-//W3C//DTD SVG 20010904//EN"
 "http://www.w3.org/TR/2001/REC-SVG-20010904/DTD/svg10.dtd">
<svg version="1.0" xmlns="http://www.w3.org/2000/svg"
 width="400.000000pt" height="400.000000pt" viewBox="0 0 400.000000 400.000000"
 preserveAspectRatio="xMidYMid meet">
<metadata>
Created by potrace 1.11, written by Peter Selinger 2001-2013
</metadata>
<g transform="translate(0.000000,400.000000) scale(0.100000,-0.100000)"
fill="#000000" stroke="none">
<path d="M673 2972 c-10 -6 -16 -29 -28 -92 -2 -14 -16 -76 -30 -139 -14 -63
-25 -116 -25 -118 0 -1 9 -3 19 -3 20 0 21 4 40 100 15 73 46 111 91 113 34 2
35 1 34 -33 0 -40 -9 -89 -24 -140 -5 -19 -10 -36 -10 -38 0 -2 10 -2 22 0 24
3 34 35 54 171 11 71 -60 103 -121 55 -27 -21 -27 -21 -21 0 4 11 9 31 11 44
3 13 7 35 10 50 6 28 -4 41 -22 30z"/>
<path d="M1666 2961 c-7 -28 -18 -75 -22 -101 -10 -55 -44 -208 -50 -224 -6
-14 -2 -17 17 -14 18 2 25 11 30 38 13 73 20 106 29 140 10 37 15 68 26 135 5
34 3 42 -10 42 -9 0 -18 -7 -20 -16z"/>
<path d="M2042 2901 c-9 -17 -22 -31 -28 -31 -6 0 -17 -7 -24 -15 -10 -13 -9
-15 10 -15 18 0 21 -4 16 -27 -14 -62 -17 -80 -23 -124 -5 -43 -3 -48 21 -64
22 -14 32 -16 51 -7 34 16 31 32 -5 32 -35 0 -37 14 -19 100 6 29 12 59 13 68
2 11 14 18 34 20 42 4 52 32 11 32 -28 0 -31 3 -27 25 8 38 -10 41 -30 6z"/>
<path d="M497 2872 c-36 -4 -92 -61 -101 -102 -20 -105 9 -155 91 -154 26 1
49 7 54 15 13 21 1 27 -35 19 -52 -12 -76 9 -76 66 0 81 45 131 109 122 17 -3
31 -1 31 4 0 4 0 11 0 16 0 10 -40 18 -73 14z"/>
<path d="M1228 2870 c-82 -23 -129 -163 -75 -225 33 -39 127 -40 133 -2 2 14
-3 16 -24 10 -63 -16 -92 2 -92 58 0 47 15 88 41 112 20 18 67 26 87 14 5 -4
12 0 16 8 3 8 2 17 -3 19 -16 10 -57 13 -83 6z"/>
<path d="M1443 2870 c-43 -10 -62 -27 -84 -75 -31 -68 -21 -142 23 -166 29
-16 83 -13 110 5 74 52 87 193 21 226 -37 18 -33 18 -70 10z m55 -39 c17 -10
23 -87 9 -120 -24 -58 -94 -83 -117 -42 -23 43 -1 138 37 160 22 13 53 14 71
2z"/>
<path d="M1793 2859 c-43 -27 -67 -82 -67 -152 -1 -50 3 -62 23 -78 24 -20 62
-18 91 6 30 24 38 26 33 5 -4 -14 0 -20 10 -20 9 0 18 8 20 18 7 25 18 74 24
102 2 14 8 43 13 65 5 22 10 46 10 53 0 21 -27 13 -33 -10 l-6 -21 -18 21
c-25 30 -64 34 -100 11z m85 -31 c16 -16 15 -71 -2 -111 -23 -56 -75 -87 -101
-61 -28 28 -12 124 27 168 16 18 60 20 76 4z"/>
<path d="M2236 2869 c-46 -13 -82 -52 -92 -102 -16 -79 -3 -124 41 -143 44
-18 115 -5 115 22 0 11 -7 13 -27 8 -16 -4 -30 -7 -33 -6 -44 0 -50 4 -58 35
-11 39 -7 44 43 49 48 6 92 32 101 60 17 53 -30 93 -90 77z m52 -55 c4 -27
-15 -42 -61 -49 -31 -5 -37 -3 -37 11 0 51 91 87 98 38z"/>
<path d="M926 2849 c-36 -28 -56 -76 -56 -133 0 -82 60 -119 138 -87 64 27 98
152 56 208 -29 38 -97 44 -138 12z m105 -25 c32 -39 -1 -159 -48 -170 -55 -14
-81 16 -75 85 7 75 86 129 123 85z"/>
<path d="M3917 2563 c-1 -1 -70 -4 -152 -8 -83 -3 -193 -8 -245 -10 -52 -2
-160 -7 -240 -10 -195 -8 -310 -13 -465 -19 -71 -4 -184 -8 -250 -11 -66 -3
-169 -7 -230 -10 -60 -3 -168 -7 -240 -10 -71 -3 -179 -7 -240 -10 -60 -3
-166 -7 -235 -10 -183 -7 -352 -15 -460 -20 -52 -2 -158 -7 -235 -10 -399 -16
-609 -26 -612 -29 -2 -1 -21 -88 -44 -192 -44 -205 -43 -199 -58 -264 -5 -25
-12 -58 -15 -75 -9 -50 -15 -76 -20 -93 -3 -9 -8 -33 -11 -52 -3 -19 -10 -51
-15 -70 -5 -19 -32 -143 -60 -275 -68 -320 -71 -335 -81 -369 -5 -16 -9 -33
-9 -37 0 -9 139 -7 1220 16 102 2 318 7 480 10 162 3 385 7 495 10 110 2 342
7 515 11 173 3 380 7 460 9 80 2 196 4 258 4 128 1 114 -9 150 111 11 36 26
90 35 120 9 30 98 327 197 660 100 333 183 612 185 620 4 12 -4 15 -36 15 -22
0 -41 -1 -42 -2z"/>
</g>
</svg>
